<svg width="610" height="428" viewBox="0 0 610 428" fill="none" xmlns="http://www.w3.org/2000/svg">
<g clip-path="url(#clip0)">
<path d="M610 0H0V428H610V0Z" fill="#EAF6E3"/>
<path d="M133.742 296.696L443.23 285.712L475.539 248.415C475.539 248.415 474.101 137.79 427.283 134.929C380.466 132.069 405.563 205.549 361.861 207.209C318.159 208.868 316.546 120.976 277.528 120.976C238.51 120.976 227.879 233.631 193.021 233.631C158.164 233.631 133.742 294.774 133.742 295.735" fill="#E4E5D1"/>
<path d="M475.539 296.696L166.051 284.096L133.742 241.296C133.742 241.296 135.18 114.337 181.998 111.062C228.815 107.786 203.718 192.098 247.42 194.019C291.122 195.941 292.735 95.0553 331.753 95.0553C370.771 95.0553 381.381 224.307 416.238 224.307C451.095 224.307 475.517 294.468 475.517 295.582" fill="#D6D7BB"/>
<path d="M412.839 221.599C412.055 221.272 411.162 221.643 410.835 222.407C405.999 233.937 399.18 237.3 395.062 238.261V209.545H387.59V270.732H395.062V241.405C399.877 240.488 408.068 236.907 413.645 223.608C413.994 222.822 413.624 221.927 412.839 221.599Z" fill="#9E6E4D"/>
<path d="M391.337 226.884C412.693 226.884 430.006 209.53 430.006 188.123C430.006 166.717 412.693 149.363 391.337 149.363C369.98 149.363 352.667 166.717 352.667 188.123C352.667 209.53 369.98 226.884 391.337 226.884Z" fill="#60B420"/>
<path d="M417.981 236.055C429.507 236.055 438.851 226.689 438.851 215.135C438.851 203.582 429.507 194.216 417.981 194.216C406.454 194.216 397.11 203.582 397.11 215.135C397.11 226.689 406.454 236.055 417.981 236.055Z" fill="#EAF6E3"/>
<path d="M371.25 160.937C370.226 165.042 372.732 169.191 376.827 170.195C377.83 166.09 375.346 161.941 371.25 160.937Z" fill="#EAF6E3"/>
<path d="M420.028 179.826C415.976 178.646 411.75 180.961 410.552 185.023C414.604 186.224 418.852 183.887 420.028 179.826Z" fill="#EAF6E3"/>
<path d="M406.151 157.858C402.426 159.845 401.01 164.474 402.992 168.208C406.696 166.221 408.112 161.592 406.151 157.858Z" fill="#EAF6E3"/>
<path d="M361.817 181.966C362.296 186.158 366.065 189.193 370.248 188.713C369.791 184.52 366.022 181.485 361.817 181.966Z" fill="#EAF6E3"/>
<path d="M389.485 166.658C386.282 169.388 385.89 174.235 388.614 177.445C391.838 174.694 392.208 169.868 389.485 166.658Z" fill="#EAF6E3"/>
<path d="M364.083 203.125C365.673 207.034 370.139 208.912 374.039 207.296C372.427 203.387 367.983 201.509 364.083 203.125Z" fill="#EAF6E3"/>
<path d="M386.827 187.992C387.633 192.141 391.642 194.849 395.759 194.063C394.975 189.914 390.966 187.184 386.827 187.992Z" fill="#EAF6E3"/>
<path d="M382.666 215.747C386.827 216.358 390.727 213.476 391.337 209.283C387.176 208.672 383.298 211.576 382.666 215.747Z" fill="#EAF6E3"/>
<path d="M418.678 206.03C419.135 202.907 416.979 199.981 413.863 199.522C413.384 202.667 415.541 205.571 418.678 206.03Z" fill="#60B420"/>
<path d="M408.373 227.102C410.051 229.788 413.558 230.618 416.238 228.936C414.582 226.25 411.053 225.421 408.373 227.102Z" fill="#60B420"/>
<path d="M403.493 212.428C405.171 215.114 408.678 215.944 411.358 214.262C409.702 211.576 406.173 210.746 403.493 212.428Z" fill="#60B420"/>
<path d="M427.044 212.712C430.181 212.362 432.447 209.545 432.098 206.401C428.961 206.728 426.695 209.567 427.044 212.712Z" fill="#60B420"/>
<path d="M420.704 218.52C421.052 221.665 423.863 223.936 427 223.586C426.673 220.442 423.841 218.171 420.704 218.52Z" fill="#60B420"/>
<path d="M301.645 181.725C302.429 181.398 303.323 181.769 303.649 182.533C308.486 194.063 315.305 197.426 319.422 198.387V169.671H326.895V274.597H319.422V201.531C314.608 200.614 306.416 197.033 300.839 183.734C300.512 182.97 300.883 182.053 301.645 181.725Z" fill="#9E6E4D"/>
<path d="M323.169 187.01C344.526 187.01 361.839 169.656 361.839 148.25C361.839 126.843 344.526 109.489 323.169 109.489C301.813 109.489 284.5 126.843 284.5 148.25C284.5 169.656 301.813 187.01 323.169 187.01Z" fill="#60B420"/>
<path d="M296.504 196.181C308.03 196.181 317.374 186.815 317.374 175.262C317.374 163.708 308.03 154.342 296.504 154.342C284.977 154.342 275.633 163.708 275.633 175.262C275.633 186.815 284.977 196.181 296.504 196.181Z" fill="#EAF6E3"/>
<path d="M343.256 121.063C344.28 125.168 341.774 129.317 337.679 130.322C336.655 126.216 339.16 122.067 343.256 121.063Z" fill="#EAF6E3"/>
<path d="M294.477 139.952C298.53 138.772 302.756 141.087 303.954 145.149C299.88 146.35 295.654 144.013 294.477 139.952Z" fill="#EAF6E3"/>
<path d="M308.355 117.984C312.08 119.971 313.496 124.6 311.514 128.334C307.789 126.369 306.373 121.718 308.355 117.984Z" fill="#EAF6E3"/>
<path d="M352.667 142.092C352.188 146.284 348.419 149.32 344.236 148.839C344.715 144.647 348.484 141.633 352.667 142.092Z" fill="#EAF6E3"/>
<path d="M325.021 126.784C328.223 129.514 328.616 134.361 325.892 137.571C322.668 134.82 322.276 129.994 325.021 126.784Z" fill="#EAF6E3"/>
<path d="M350.423 163.251C348.833 167.16 344.367 169.038 340.467 167.422C342.057 163.513 346.524 161.636 350.423 163.251Z" fill="#EAF6E3"/>
<path d="M327.657 148.119C326.851 152.268 322.842 154.975 318.725 154.189C319.531 150.04 323.518 147.332 327.657 148.119Z" fill="#EAF6E3"/>
<path d="M331.818 175.873C327.657 176.484 323.758 173.602 323.148 169.409C327.33 168.82 331.208 171.702 331.818 175.873Z" fill="#EAF6E3"/>
<path d="M295.828 166.156C295.371 163.033 297.528 160.107 300.643 159.648C301.122 162.793 298.965 165.697 295.828 166.156Z" fill="#60B420"/>
<path d="M306.111 187.228C304.434 189.914 300.926 190.744 298.246 189.062C299.902 186.376 303.431 185.547 306.111 187.228Z" fill="#60B420"/>
<path d="M311.013 172.554C309.335 175.24 305.828 176.07 303.148 174.388C304.804 171.702 308.333 170.872 311.013 172.554Z" fill="#60B420"/>
<path d="M287.462 172.838C284.325 172.488 282.06 169.671 282.408 166.527C285.545 166.854 287.811 169.693 287.462 172.838Z" fill="#60B420"/>
<path d="M293.802 178.646C293.454 181.791 290.643 184.062 287.506 183.712C287.833 180.568 290.665 178.297 293.802 178.646Z" fill="#60B420"/>
<path d="M245.83 147.944C243.739 145.869 220.471 126.194 217.922 124.076C215.374 121.98 212.629 124.054 211.474 124.644C210.319 125.212 208.86 123.399 208.86 123.399L206.812 126.238C206.812 126.238 235.809 145.891 240.275 148.774C244.741 151.656 246.418 151.853 247.094 151.285C247.529 150.892 247.9 149.997 245.83 147.944Z" fill="#E6E6E6"/>
<path d="M203.282 123.137C203.282 123.137 172.826 140.41 168.251 143.118C163.698 145.848 162.783 147.267 162.979 148.119C163.11 148.686 163.763 149.429 166.53 148.468C169.318 147.507 197.248 135.41 200.276 134.056C203.282 132.702 202.651 129.295 202.651 128.007C202.651 126.719 204.916 126.216 204.916 126.216L203.282 123.137Z" fill="#E6E6E6"/>
<path d="M207.945 121.456C207.945 121.456 210.799 86.4953 211.125 81.189C211.43 75.8826 210.777 74.3104 209.949 74.0047C209.404 73.8081 208.446 73.9173 207.661 76.7343C206.899 79.573 201.169 109.555 200.603 112.809C200.036 116.062 203.195 117.438 204.263 118.158C205.33 118.879 204.459 121.063 204.459 121.063L207.945 121.456Z" fill="#E6E6E6"/>
<path d="M205.875 123.399H207.879L211.212 271.234H205.875V123.399Z" fill="#CCCCCC"/>
<path d="M205.875 123.399H203.871L200.559 271.234H205.875V123.399Z" fill="#E6E6E6"/>
<path d="M205.875 127.177C207.957 127.177 209.644 125.486 209.644 123.399C209.644 121.313 207.957 119.622 205.875 119.622C203.794 119.622 202.106 121.313 202.106 123.399C202.106 125.486 203.794 127.177 205.875 127.177Z" fill="#CCCCCC"/>
<path d="M205.875 125.408C206.982 125.408 207.879 124.509 207.879 123.399C207.879 122.29 206.982 121.39 205.875 121.39C204.768 121.39 203.871 122.29 203.871 123.399C203.871 124.509 204.768 125.408 205.875 125.408Z" fill="#0D1F2D"/>
<path d="M262.801 93.7014H264.805L268.117 271.234H262.801V93.7014Z" fill="#CCCCCC"/>
<path d="M262.801 93.7014H260.797L257.464 271.234H262.801V93.7014Z" fill="#E6E6E6"/>
<path d="M291.929 130.475C290.665 127.81 275.568 101.322 273.89 98.4619C272.213 95.6012 268.923 96.6276 267.638 96.7804C266.352 96.9333 265.611 94.7059 265.611 94.7059L262.714 96.6712C262.714 96.6712 283.214 125.081 286.439 129.339C289.641 133.575 291.166 134.34 291.994 134.034C292.517 133.837 293.17 133.117 291.929 130.475Z" fill="#E6E6E6"/>
<path d="M260.448 92.5659C260.448 92.5659 225.918 98.3089 220.711 99.3134C215.482 100.318 214.154 101.322 214.045 102.196C213.979 102.785 214.328 103.681 217.247 103.746C220.188 103.812 250.579 102.043 253.869 101.803C257.159 101.563 257.725 98.1561 258.161 96.9551C258.596 95.754 260.906 96.0598 260.906 96.0598L260.448 92.5659Z" fill="#E6E6E6"/>
<path d="M265.415 92.5877C265.415 92.5877 280.055 60.7279 282.169 55.8365C284.282 50.9451 284.195 49.2637 283.519 48.6959C283.084 48.3028 282.125 48.0845 280.448 50.4865C278.748 52.8885 263.128 79.0926 261.472 81.9533C259.816 84.8139 262.322 87.1941 263.063 88.2422C263.825 89.2904 262.256 91.0373 262.256 91.0373L265.415 92.5877Z" fill="#E6E6E6"/>
<path d="M262.801 97.4792C264.883 97.4792 266.57 95.7878 266.57 93.7014C266.57 91.615 264.883 89.9237 262.801 89.9237C260.72 89.9237 259.032 91.615 259.032 93.7014C259.032 95.7878 260.72 97.4792 262.801 97.4792Z" fill="#CCCCCC"/>
<path d="M262.801 95.7104C263.908 95.7104 264.805 94.8109 264.805 93.7014C264.805 92.5919 263.908 91.6924 262.801 91.6924C261.694 91.6924 260.797 92.5919 260.797 93.7014C260.797 94.8109 261.694 95.7104 262.801 95.7104Z" fill="#0D1F2D"/>
<path d="M153.437 85.2943H155.441L158.774 271.234H153.437V85.2943Z" fill="#CCCCCC"/>
<path d="M153.437 85.2943H151.432L148.121 271.234H153.437V85.2943Z" fill="#E6E6E6"/>
<path d="M182.564 122.067C181.301 119.403 166.203 92.9153 164.526 90.0547C162.848 87.1941 159.559 88.2204 158.273 88.3733C156.988 88.5261 156.247 86.2988 156.247 86.2988L153.35 88.2641C153.35 88.2641 173.85 116.674 177.074 120.932C180.277 125.168 181.802 125.932 182.63 125.627C183.174 125.43 183.828 124.71 182.564 122.067Z" fill="#E6E6E6"/>
<path d="M151.084 84.1588C151.084 84.1588 116.554 89.9018 111.347 90.9063C106.118 91.9108 104.789 92.9153 104.68 93.7888C104.615 94.3784 104.964 95.2737 107.883 95.3392C110.824 95.4047 141.215 93.6359 144.505 93.3957C147.794 93.1555 148.361 89.749 148.796 88.5479C149.232 87.3469 151.541 87.6526 151.541 87.6526L151.084 84.1588Z" fill="#E6E6E6"/>
<path d="M156.051 84.1806C156.051 84.1806 170.691 52.3208 172.804 47.4294C174.917 42.5379 174.83 40.8565 174.155 40.2888C173.719 39.8957 172.761 39.6773 171.083 42.0794C169.384 44.4814 153.764 70.6855 152.108 73.5461C150.452 76.4067 152.957 78.7869 153.698 79.8351C154.461 80.8833 152.892 82.6302 152.892 82.6302L156.051 84.1806Z" fill="#E6E6E6"/>
<path d="M153.437 89.0721C155.518 89.0721 157.206 87.3807 157.206 85.2943C157.206 83.2079 155.518 81.5165 153.437 81.5165C151.355 81.5165 149.668 83.2079 149.668 85.2943C149.668 87.3807 151.355 89.0721 153.437 89.0721Z" fill="#CCCCCC"/>
<path d="M153.437 87.3032C154.544 87.3032 155.441 86.4038 155.441 85.2943C155.441 84.1847 154.544 83.2853 153.437 83.2853C152.33 83.2853 151.432 84.1847 151.432 85.2943C151.432 86.4038 152.33 87.3032 153.437 87.3032Z" fill="#0D1F2D"/>
<path d="M466.955 280.187H157.903C157.903 290.996 159.537 301.5 162.63 311.523H462.249C465.321 301.5 466.955 290.996 466.955 280.187Z" fill="#B47F57"/>
<path d="M162.63 311.523C179.58 366.639 240.231 407.408 312.429 407.408C384.627 407.408 445.278 366.617 462.227 311.523H162.63Z" fill="#9E6E4D"/>
<path d="M303.126 213.651H220.188V270.754H303.126V213.651Z" fill="#D68C45"/>
<path d="M306.351 178.603H220.188V210.637H306.351V178.603Z" fill="#0D1F2D"/>
<path d="M166.051 180.066L194.568 163.142L222.846 180.066V217.8H166.051V180.066Z" fill="#D68C45"/>
<path d="M221.909 221.621H166.051V263.81H221.909V221.621Z" fill="#D68C45"/>
<path d="M216.376 228.631H205.94V237.191H216.376V228.631Z" fill="#216663"/>
<path d="M216.376 237.191H205.94V251.843H216.376V237.191Z" fill="#0D1F2D"/>
<path d="M217.77 251.843H204.524V253.11H217.77V251.843Z" fill="#F2E9C0"/>
<path d="M182.02 228.631H171.584V237.191H182.02V228.631Z" fill="#216663"/>
<path d="M182.02 237.191H171.584V251.843H182.02V237.191Z" fill="#0D1F2D"/>
<path d="M183.414 251.843H170.168V253.11H183.414V251.843Z" fill="#F2E9C0"/>
<path d="M214.197 187.796H199.209V196.64H214.197V187.796Z" fill="#216663"/>
<path d="M214.197 196.64H199.209V211.816H214.197V196.64Z" fill="#0D1F2D"/>
<path d="M216.245 211.816H197.183V213.651H216.245V211.816Z" fill="#F2E9C0"/>
<path d="M189.688 187.796H174.7V196.64H189.688V187.796Z" fill="#216663"/>
<path d="M189.688 196.64H174.7V211.816H189.688V196.64Z" fill="#0D1F2D"/>
<path d="M191.736 211.816H172.674V213.651H191.736V211.816Z" fill="#F2E9C0"/>
<path d="M286.177 227.277H271.189V236.121H286.177V227.277Z" fill="#216663"/>
<path d="M286.177 236.121H271.189V251.297H286.177V236.121Z" fill="#0D1F2D"/>
<path d="M288.225 251.275H269.163V253.11H288.225V251.275Z" fill="#F2E9C0"/>
<path d="M251.364 227.277H236.375V236.121H251.364V227.277Z" fill="#216663"/>
<path d="M251.364 236.121H236.375V251.297H251.364V236.121Z" fill="#0D1F2D"/>
<path d="M253.411 251.275H234.349V253.11H253.411V251.275Z" fill="#F2E9C0"/>
<path d="M194.459 160.609L156.792 185.023V188.822L194.459 164.431L232.105 188.822V185.023L194.459 160.609Z" fill="#F2E9C0"/>
<path d="M223.739 217.8H165.136V221.621H223.739V217.8Z" fill="#F2E9C0"/>
<path d="M221.909 263.81H166.051V270.732H221.909V263.81Z" fill="#0D1F2D"/>
<path d="M200.385 235.269H187.553V258.875H200.385V235.269Z" fill="#9E6E4D"/>
<path d="M203.827 258.853H184.133V261.233H203.827V258.853Z" fill="#D68C45"/>
<path d="M203.827 261.233H184.133V263.613H203.827V261.233Z" fill="#D68C45"/>
<path d="M203.827 263.613H184.133V265.993H203.827V263.613Z" fill="#D68C45"/>
<path d="M203.827 265.993H184.133V268.373H203.827V265.993Z" fill="#D68C45"/>
<path d="M203.827 268.373H184.133V270.754H203.827V268.373Z" fill="#D68C45"/>
<path d="M306.351 210.615H222.846V213.629H306.351V210.615Z" fill="#F2E9C0"/>
<path d="M466.955 270.732H157.903V280.187H466.955V270.732Z" fill="#60B420"/>
<path d="M390.335 226.84L386.195 200.221C385.76 197.448 383.232 195.286 380.444 195.286H343.648C340.837 195.286 338.31 197.47 337.896 200.243L333.822 226.84C333.605 228.303 333.997 229.788 334.934 230.88C335.87 231.972 337.243 232.583 338.746 232.583H385.476C386.958 232.583 388.352 231.95 389.289 230.88C390.16 229.788 390.574 228.325 390.335 226.84Z" fill="#CCCCCC"/>
<path d="M372.688 197.906H362.841V206.532H373.255L372.688 197.906Z" fill="#2C979F"/>
<path d="M374.126 219.525H362.841V229.984H374.823L374.126 219.525Z" fill="#2C979F"/>
<path d="M361.273 229.984V219.525H350.772L350.075 229.984H361.273Z" fill="#2C979F"/>
<path d="M349.966 208.104H339.312L337.787 217.952H349.312L349.966 208.104Z" fill="#2C979F"/>
<path d="M351.643 206.532H361.273V197.906H352.231L351.643 206.532Z" fill="#2C979F"/>
<path d="M361.273 208.104H351.534L350.881 217.952H361.273V208.104Z" fill="#2C979F"/>
<path d="M362.841 208.104V217.952H374.017L373.364 208.104H362.841Z" fill="#2C979F"/>
<path d="M384.779 208.104H374.932L375.586 217.952H386.304L384.779 208.104Z" fill="#2C979F"/>
<path d="M386.544 219.525H375.695L376.392 229.984H385.411C386.936 229.984 387.982 228.762 387.742 227.255L386.544 219.525Z" fill="#2C979F"/>
<path d="M349.203 219.525H337.548L336.371 227.255C336.132 228.762 337.178 229.984 338.702 229.984H348.506L349.203 219.525Z" fill="#2C979F"/>
<path d="M350.075 206.532L350.663 197.906H343.626C342.101 197.906 340.685 199.129 340.445 200.636L339.552 206.51H350.075V206.532Z" fill="#2C979F"/>
<path d="M374.823 206.532H384.518L383.603 200.636C383.363 199.129 381.947 197.906 380.422 197.906H374.235L374.823 206.532Z" fill="#2C979F"/>
<path d="M364.671 232.605H359.421V270.754H364.671V232.605Z" fill="#B47F57"/>
<path d="M452.054 231.229H446.389V270.754H452.054V231.229Z" fill="#B47F57"/>
<path d="M469.722 231.819C469.722 243.152 460.55 252.367 449.221 252.367C437.915 252.367 428.721 243.174 428.721 231.819C428.721 220.486 437.893 180.764 449.221 180.764C460.55 180.764 469.722 220.464 469.722 231.819Z" fill="#60B420"/>
<path d="M458.437 195.941C455.779 196.552 454.123 199.195 454.733 201.859C457.391 201.269 459.047 198.605 458.437 195.941Z" fill="#EAF6E3"/>
<path d="M456.084 209.021C456.106 211.751 458.35 213.956 461.073 213.913C461.029 211.183 458.807 208.999 456.084 209.021Z" fill="#EAF6E3"/>
<path d="M442.337 223.979C439.614 224.001 437.414 226.25 437.457 228.98C440.18 228.958 442.359 226.731 442.337 223.979Z" fill="#EAF6E3"/>
<path d="M435.322 212.34C435.344 215.07 437.588 217.276 440.311 217.232C440.267 214.502 438.045 212.319 435.322 212.34Z" fill="#EAF6E3"/>
<path d="M443.492 190.416C442.838 193.059 444.45 195.744 447.086 196.4C447.762 193.757 446.15 191.071 443.492 190.416Z" fill="#EAF6E3"/>
<path d="M447.217 201.859C444.516 202.143 442.533 204.567 442.816 207.296C445.54 207.012 447.5 204.588 447.217 201.859Z" fill="#EAF6E3"/>
<path d="M449.221 212.34C447.805 214.677 448.568 217.712 450.899 219.132C452.315 216.795 451.574 213.738 449.221 212.34Z" fill="#EAF6E3"/>
<path d="M449.505 225.835C448.611 228.412 449.962 231.229 452.533 232.124C453.448 229.548 452.075 226.731 449.505 225.835Z" fill="#EAF6E3"/>
<path d="M449.004 237.955C446.825 239.593 446.389 242.693 448.045 244.877C450.224 243.239 450.638 240.139 449.004 237.955Z" fill="#EAF6E3"/>
<path d="M463.186 234.243C460.463 234.417 458.415 236.776 458.589 239.505C461.291 239.309 463.36 236.95 463.186 234.243Z" fill="#EAF6E3"/>
<path d="M442.185 235.924C439.461 236.099 437.414 238.457 437.588 241.187C440.311 241.012 442.359 238.654 442.185 235.924Z" fill="#EAF6E3"/>
<path d="M463.121 219.568C460.419 220.005 458.589 222.538 459.025 225.224C461.705 224.787 463.535 222.254 463.121 219.568Z" fill="#EAF6E3"/>
<path d="M222.868 343.797L178.447 290.21L172.608 285.603L148.252 254.223C145.354 254.267 143.197 255.424 141.934 257.826C140.039 261.451 140.714 265.775 143.045 270.295C146.378 276.759 153.066 283.594 160.408 289.315C172.891 299.032 184.438 318.489 193.675 335.172C202.912 351.833 231.56 361.573 231.56 361.573C251.625 363.145 222.868 343.797 222.868 343.797Z" fill="#F1C89C"/>
<path d="M250.514 314.777C226.027 308.291 202.455 293.944 183.065 275.405C168.926 261.91 156.007 254.07 148.252 254.201L172.608 285.581L178.447 290.188L222.868 343.776C222.868 343.776 251.625 363.123 231.582 361.529C211.539 359.935 189.013 341.527 179.166 323.184C171.759 309.361 156.922 292.176 150.779 285.843C138.949 273.592 140.888 261.495 140.888 261.495C140.997 260.207 141.346 258.984 141.956 257.826C143.219 255.446 145.376 254.289 148.274 254.223C148.274 254.223 148.295 166.789 131.411 166.789C127.468 166.789 124.767 169.519 122.959 174.061C123.612 175.371 124.2 177.86 124.396 182.468C124.832 192.338 123.111 197.819 119.56 200.308C119.407 215.31 120.715 232.496 120.932 245.423C121.39 274.226 123.372 298.901 140.866 323.599C158.36 348.296 168.839 357.424 198.925 371.596C219.97 381.51 233.216 398.804 239.272 428.022H312.451V403.718C312.429 339.801 275.001 321.262 250.514 314.777Z" fill="#F1C89C"/>
<path d="M124.396 182.468C124.2 177.86 123.612 175.371 122.958 174.061C120.497 180.219 119.669 189.718 119.56 200.308C123.111 197.819 124.832 192.338 124.396 182.468Z" fill="#FCEDDE"/>
<path d="M193.697 335.15C184.46 318.467 172.913 299.032 160.43 289.293C153.088 283.572 145.877 270.251 142.544 263.788L140.888 261.451C140.648 264.181 141.476 267.172 143.067 270.251C143.067 270.251 144.788 280.406 152.391 284.86C159.994 289.315 177.684 308.771 183.871 323.184C190.059 337.596 211.517 359.979 231.582 361.551C231.582 361.551 202.934 351.833 193.697 335.15Z" fill="#E9BE94"/>
<path d="M183.871 323.184C177.684 308.771 159.972 289.359 152.369 284.904C144.766 280.449 143.045 270.295 143.045 270.295C141.455 267.216 140.627 264.224 140.866 261.495C140.866 261.495 138.949 273.614 150.757 285.843C156.879 292.175 171.715 309.361 179.144 323.184C188.991 341.527 211.518 359.979 231.56 361.551C211.518 359.979 190.059 337.596 183.871 323.184Z" fill="#E9BE94"/>
<path d="M167.706 268.373C161.236 271.234 157.903 280.82 157.903 280.82C157.903 280.82 139.93 265.993 146.008 259.813C152.086 253.634 167.706 268.373 167.706 268.373Z" fill="#FCEDDE"/>
<path d="M401.99 343.797L446.411 290.21L452.25 285.603L476.606 254.223C479.503 254.267 481.66 255.424 482.924 257.826C484.819 261.451 484.144 265.775 481.813 270.295C478.48 276.759 471.791 283.594 464.45 289.315C451.966 299.032 440.42 318.489 431.183 335.172C421.946 351.833 393.297 361.573 393.297 361.573C373.233 363.145 401.99 343.797 401.99 343.797Z" fill="#F1C89C"/>
<path d="M374.344 314.777C398.831 308.291 422.403 293.944 441.792 275.405C455.931 261.91 468.85 254.07 476.606 254.201L452.25 285.581L446.411 290.188L401.99 343.776C401.99 343.776 373.233 363.123 393.276 361.529C413.319 359.935 435.845 341.505 445.692 323.162C453.099 309.339 467.957 292.154 474.079 285.821C485.909 273.571 483.97 261.473 483.97 261.473C483.861 260.185 483.512 258.962 482.902 257.805C481.639 255.424 479.482 254.267 476.584 254.201C476.584 254.201 476.562 166.767 493.446 166.767C497.39 166.767 500.091 169.497 501.899 174.039C501.246 175.349 500.657 177.838 500.461 182.446C500.026 192.316 501.747 197.797 505.298 200.287C505.45 215.288 504.143 232.474 503.925 245.401C503.468 274.204 501.485 298.879 483.991 323.577C466.498 348.274 456.019 357.402 425.932 371.574C404.887 381.488 391.642 398.783 385.585 428H312.407V403.696C312.429 339.801 349.857 321.262 374.344 314.777Z" fill="#F1C89C"/>
<path d="M500.461 182.468C500.657 177.86 501.246 175.371 501.899 174.061C504.361 180.219 505.189 189.718 505.298 200.308C501.747 197.819 500.026 192.338 500.461 182.468Z" fill="#FCEDDE"/>
<path d="M431.183 335.15C440.42 318.467 451.966 299.032 464.45 289.293C471.791 283.572 479.002 270.251 482.336 263.788L483.991 261.451C484.231 264.181 483.403 267.172 481.813 270.251C481.813 270.251 480.092 280.406 472.489 284.86C464.885 289.315 447.173 308.771 440.986 323.184C434.799 337.596 413.34 359.979 393.276 361.551C393.297 361.551 421.924 351.833 431.183 335.15Z" fill="#E9BE94"/>
<path d="M440.986 323.184C447.174 308.771 464.885 289.359 472.489 284.904C480.092 280.449 481.813 270.295 481.813 270.295C483.403 267.216 484.231 264.224 483.991 261.495C483.991 261.495 485.908 273.614 474.101 285.843C467.979 292.175 453.143 309.361 445.714 323.184C435.867 341.527 413.34 359.979 393.297 361.551C413.34 359.979 434.799 337.596 440.986 323.184Z" fill="#E9BE94"/>
<path d="M457.173 268.373C463.644 271.234 466.977 280.82 466.977 280.82C466.977 280.82 484.95 265.993 478.872 259.814C472.794 253.634 457.173 268.373 457.173 268.373Z" fill="#FCEDDE"/>
<path d="M348.092 255.905L343.931 229.286C343.495 226.512 340.968 224.351 338.18 224.351H301.384C298.573 224.351 296.046 226.534 295.632 229.308L291.558 255.905C291.34 257.368 291.732 258.853 292.669 259.944C293.606 261.036 294.979 261.648 296.482 261.648H343.212C344.694 261.648 346.088 261.014 347.025 259.944C347.918 258.853 348.31 257.39 348.092 255.905Z" fill="#E6E6E6"/>
<path d="M330.424 226.971H320.599V235.597H331.012L330.424 226.971Z" fill="#2C979F"/>
<path d="M331.884 248.589H320.599V259.049H332.581L331.884 248.589Z" fill="#2C979F"/>
<path d="M319.03 259.049V248.589H308.529L307.832 259.049H319.03Z" fill="#2C979F"/>
<path d="M307.723 237.169H297.048L295.545 247.017H307.07L307.723 237.169Z" fill="#2C979F"/>
<path d="M309.401 235.597H319.03V226.971H309.967L309.401 235.597Z" fill="#2C979F"/>
<path d="M319.03 237.169H309.292L308.638 247.017H319.03V237.169Z" fill="#2C979F"/>
<path d="M320.599 237.169V247.017H331.775L331.121 237.169H320.599Z" fill="#2C979F"/>
<path d="M342.515 237.169H332.689L333.343 247.017H344.062L342.515 237.169Z" fill="#2C979F"/>
<path d="M344.301 248.589H333.452L334.149 259.049H343.19C344.715 259.049 345.761 257.826 345.521 256.32L344.301 248.589Z" fill="#2C979F"/>
<path d="M306.961 248.589H295.305L294.129 256.32C293.889 257.826 294.935 259.049 296.46 259.049H306.264L306.961 248.589Z" fill="#2C979F"/>
<path d="M307.832 235.597L308.42 226.971H301.384C299.859 226.971 298.443 228.194 298.203 229.701L297.31 235.575H307.832V235.597Z" fill="#2C979F"/>
<path d="M332.581 235.597H342.275L341.36 229.701C341.121 228.194 339.705 226.971 338.18 226.971H331.992L332.581 235.597Z" fill="#2C979F"/>
<path d="M322.429 261.67H317.178V270.754H322.429V261.67Z" fill="#B47F57"/>
<path d="M408.744 259.486L405.715 240.073C405.41 238.042 403.559 236.47 401.511 236.47H374.671C372.623 236.47 370.793 238.064 370.466 240.073L367.482 259.464C367.307 260.534 367.612 261.604 368.288 262.412C368.963 263.198 369.987 263.657 371.054 263.657H405.127C406.217 263.657 407.219 263.198 407.894 262.412C408.635 261.626 408.918 260.556 408.744 259.486Z" fill="#E6E6E6"/>
<path d="M395.868 238.37H388.701V244.659H396.304L395.868 238.37Z" fill="#2C979F"/>
<path d="M396.936 254.136H388.701V261.757H397.437L396.936 254.136Z" fill="#2C979F"/>
<path d="M387.568 261.757V254.136H379.899L379.398 261.757H387.568Z" fill="#2C979F"/>
<path d="M379.311 245.794H371.534L370.444 253H378.832L379.311 245.794Z" fill="#2C979F"/>
<path d="M380.531 244.659H387.568V238.37H380.967L380.531 244.659Z" fill="#2C979F"/>
<path d="M387.568 245.794H380.466L379.986 253H387.568V245.794Z" fill="#2C979F"/>
<path d="M388.701 245.794V253H396.849L396.369 245.794H388.701Z" fill="#2C979F"/>
<path d="M404.692 245.794H397.524L398.003 253H405.824L404.692 245.794Z" fill="#2C979F"/>
<path d="M405.999 254.136H398.09L398.591 261.757H405.171C406.282 261.757 407.044 260.862 406.87 259.77L405.999 254.136Z" fill="#2C979F"/>
<path d="M378.766 254.136H370.27L369.399 259.77C369.224 260.862 369.987 261.757 371.098 261.757H378.243L378.766 254.136Z" fill="#2C979F"/>
<path d="M379.398 244.659L379.812 238.37H374.693C373.581 238.37 372.536 239.265 372.383 240.357L371.73 244.637H379.398V244.659Z" fill="#2C979F"/>
<path d="M397.437 244.659H404.517L403.842 240.357C403.667 239.265 402.622 238.37 401.511 238.37H397.001L397.437 244.659Z" fill="#2C979F"/>
<path d="M390.052 263.679H386.217V270.295H390.052V263.679Z" fill="#B47F57"/>
<path d="M388.091 43.8919C387.677 38.8476 383.494 34.8515 378.374 34.786C377.329 29.7198 372.841 25.9203 367.482 25.9203C362.405 25.9203 358.114 29.3268 356.785 33.9998C355.282 32.9735 353.473 32.3621 351.534 32.3621C346.393 32.3621 342.232 36.5329 342.232 41.6864C342.232 42.3196 342.297 42.9311 342.406 43.5425C342.341 43.5425 342.275 43.5425 342.232 43.5425C338.746 43.5425 335.914 46.3813 335.914 49.8751C335.914 53.369 338.746 56.2078 342.232 56.2078H385.956C389.441 56.2078 392.274 53.369 392.274 49.8751C392.252 47.1019 390.509 44.7653 388.091 43.8919Z" fill="#E4E5D1"/>
<path d="M128.688 133.182C128.274 128.138 124.091 124.142 118.972 124.076C117.926 119.01 113.438 115.211 108.079 115.211C103.003 115.211 98.7111 118.617 97.3822 123.29C95.879 122.264 94.0708 121.652 92.1319 121.652C86.9904 121.652 82.8294 125.823 82.8294 130.977C82.8294 131.61 82.8947 132.221 83.0036 132.833C82.9383 132.833 82.8729 132.833 82.8294 132.833C79.3436 132.833 76.5115 135.672 76.5115 139.166C76.5115 142.659 79.3436 145.498 82.8294 145.498H126.553C130.039 145.498 132.871 142.659 132.871 139.166C132.849 136.392 131.107 134.056 128.688 133.182Z" fill="#E4E5D1"/>
<path d="M246.113 49.8532C245.917 47.3857 243.869 45.4204 241.342 45.3767C240.819 42.8873 238.641 41.0312 236.005 41.0312C233.521 41.0312 231.408 42.7126 230.754 44.9836C230.014 44.4814 229.142 44.1757 228.184 44.1757C225.657 44.1757 223.63 46.2283 223.63 48.7395C223.63 49.0453 223.652 49.351 223.718 49.6349C223.696 49.6349 223.652 49.6349 223.63 49.6349C221.931 49.6349 220.537 51.0324 220.537 52.7357C220.537 54.4389 221.931 55.8365 223.63 55.8365H245.068C246.767 55.8365 248.161 54.4389 248.161 52.7357C248.161 51.4255 247.311 50.29 246.113 49.8532Z" fill="#E4E5D1"/>
<path d="M440.05 117.11C439.766 113.704 436.956 111.018 433.492 110.974C432.773 107.568 429.767 104.991 426.15 104.991C422.73 104.991 419.832 107.284 418.939 110.428C417.937 109.73 416.717 109.337 415.388 109.337C411.924 109.337 409.114 112.153 409.114 115.626C409.114 116.062 409.157 116.477 409.245 116.87C409.201 116.87 409.157 116.87 409.114 116.87C406.761 116.87 404.866 118.77 404.866 121.128C404.866 123.487 406.761 125.387 409.114 125.387H438.59C440.943 125.387 442.838 123.487 442.838 121.128C442.86 119.294 441.683 117.722 440.05 117.11Z" fill="#E4E5D1"/>
</g>
<defs>
<clipPath id="clip0">
<rect width="610" height="428" fill="white"/>
</clipPath>
</defs>
</svg>
